<svg xmlns="http://www.w3.org/2000/svg" version="1.1" xmlns:xlink="http://www.w3.org/1999/xlink" xmlns:svgjs="http://svgjs.com/svgjs" width="1440" height="500" preserveAspectRatio="none" viewBox="0 0 1440 500"><g mask="url(&quot;#SvgjsMask1062&quot;)" fill="none"><path d="M46 500L546 0L1021.5 0L521.5 500z" fill="url(#SvgjsLinearGradient1063)"></path><path d="M349.8 500L849.8 0L951.8 0L451.8 500z" fill="url(#SvgjsLinearGradient1063)"></path><path d="M669.6 500L1169.6 0L1634.6 0L1134.6 500z" fill="url(#SvgjsLinearGradient1063)"></path><path d="M1405 500L905 0L669.5 0L1169.5 500z" fill="url(#SvgjsLinearGradient1064)"></path><path d="M1095.2 500L595.2 0L202.20000000000005 0L702.2 500z" fill="url(#SvgjsLinearGradient1064)"></path><path d="M756.4 500L256.4 0L170.89999999999998 0L670.9 500z" fill="url(#SvgjsLinearGradient1064)"></path><path d="M1142.8020657249222 500L1440 202.80206572492216L1440 500z" fill="url(#SvgjsLinearGradient1063)"></path><path d="M0 500L297.19793427507784 500L 0 202.80206572492216z" fill="url(#SvgjsLinearGradient1064)"></path></g><defs><mask id="SvgjsMask1062"><rect width="1440" height="500" fill="#ffffff"></rect></mask><linearGradient x1="0%" y1="100%" x2="100%" y2="0%" id="SvgjsLinearGradient1063"><stop stop-color="rgba(240, 240, 240, 0.49)" offset="0"></stop><stop stop-opacity="0" stop-color="rgba(240, 240, 240, 0.49)" offset="0.66"></stop></linearGradient><linearGradient x1="100%" y1="100%" x2="0%" y2="0%" id="SvgjsLinearGradient1064"><stop stop-color="rgba(240, 240, 240, 0.49)" offset="0"></stop><stop stop-opacity="0" stop-color="rgba(240, 240, 240, 0.49)" offset="0.66"></stop></linearGradient></defs></svg>